<?xml version="1.0" encoding="utf-8"?>
<!-- Generator: Adobe Illustrator 26.0.1, SVG Export Plug-In . SVG Version: 6.00 Build 0)  -->
<svg version="1.1" id="レイヤー_1" xmlns="http://www.w3.org/2000/svg" xmlns:xlink="http://www.w3.org/1999/xlink" x="0px"
	 y="0px" viewBox="0 0 342 342" style="enable-background:new 0 0 342 342;" xml:space="preserve">
<style type="text/css">
	.st0{fill:#F3BBD5;}
	.st1{fill:#8FC31F;stroke:#000000;stroke-miterlimit:10;}
	.st2{fill:#2EA7E0;}
	.st3{fill:#920783;}
	.st4{fill:#8FC31F;}
	.st5{fill:#7F4F21;}
	.st6{fill:#FAEE00;}
	.st7{fill:#E95C97;}
	.st8{fill:#EB5D1E;}
	.st9{fill:#E83828;}
</style>
<ellipse class="st0" cx="171" cy="171" rx="56.7" ry="57.4"/>
<path class="st1" d="M145.2,131.4"/>
<g>
	<g>
		<path d="M148.5,139.3c1.1,0,1.1-1.7,0-1.7S147.4,139.3,148.5,139.3L148.5,139.3z"/>
	</g>
</g>
<ellipse class="st2" cx="162.9" cy="134.6" rx="29.2" ry="8.6"/>
<ellipse transform="matrix(0.4614 -0.8872 0.8872 0.4614 -64.522 198.1335)" class="st3" cx="130.9" cy="152.2" rx="29.4" ry="8.7"/>
<ellipse transform="matrix(0.4614 -0.8872 0.8872 0.4614 -64.4306 242.4074)" class="st4" cx="167.4" cy="174.3" rx="49.7" ry="10"/>
<rect x="1139.7" y="202" transform="matrix(0.152 -0.9884 0.9884 0.152 744.143 1336.4846)" class="st5" width="22.5" height="65.2"/>
<rect x="1144.9" y="140.8" transform="matrix(0.152 -0.9884 0.9884 0.152 800.0391 1301.7157)" class="st6" width="27.5" height="87.6"/>
<ellipse transform="matrix(0.2709 -0.9626 0.9626 0.2709 -48.2466 330.2086)" class="st6" cx="193.9" cy="197" rx="3.9" ry="11.3"/>
<ellipse transform="matrix(0.2709 -0.9626 0.9626 0.2709 -31.4483 323.6173)" class="st7" cx="197.9" cy="182.6" rx="4.9" ry="13.9"/>
<ellipse transform="matrix(0.2709 -0.9626 0.9626 0.2709 -64.7478 336.2038)" class="st8" cx="189.6" cy="210.8" rx="5" ry="17.5"/>
<polygon class="st5" points="209.6,147.1 200.9,145.1 194.4,151.2 193.6,142.3 185.9,138 194,134.5 195.7,125.8 201.6,132.4 
	210.4,131.4 205.9,139 "/>
<polygon class="st9" points="211.6,171 206.7,163.7 198,163.6 203.4,156.7 200.8,148.3 209,151.4 216.2,146.3 215.8,155.1 
	222.8,160.4 214.4,162.7 "/>
</svg>
