<?xml version="1.0" encoding="utf-8"?>
<!-- Generator: Adobe Illustrator 26.0.1, SVG Export Plug-In . SVG Version: 6.00 Build 0)  -->
<svg version="1.1" id="レイヤー_1" xmlns="http://www.w3.org/2000/svg" xmlns:xlink="http://www.w3.org/1999/xlink" x="0px"
	 y="0px" viewBox="0 0 342 342" style="enable-background:new 0 0 342 342;" xml:space="preserve">
<style type="text/css">
	.st0{fill:#F3BBD5;}
	.st1{fill:#8FC31F;stroke:#000000;stroke-miterlimit:10;}
	.st2{fill:#2EA7E0;}
	.st3{fill:#920783;}
	.st4{fill:#8FC31F;}
	.st5{fill:#7F4F21;}
	.st6{fill:#FAEE00;}
	.st7{fill:#E95C97;}
	.st8{fill:#EB5D1E;}
	.st9{fill:#E83828;}
</style>
<circle class="st0" cx="171" cy="171" r="171"/>
<path class="st1" d="M94,53"/>
<g>
	<g>
		<path d="M104,76.5c3.22,0,3.22-5,0-5C100.78,71.5,100.78,76.5,104,76.5L104,76.5z"/>
	</g>
</g>
<ellipse class="st2" cx="147" cy="62.5" rx="87" ry="25.5"/>
<ellipse transform="matrix(0.4614 -0.8872 0.8872 0.4614 -74.2458 107.6503)" class="st3" cx="51.53" cy="114.97" rx="87.72" ry="25.91"/>
<ellipse transform="matrix(0.4614 -0.8872 0.8872 0.4614 -73.967 239.6279)" class="st4" cx="160.36" cy="180.73" rx="148.11" ry="29.75"/>
<rect x="1139.68" y="202" transform="matrix(0.152 -0.9884 0.9884 0.152 744.1136 1336.5033)" class="st5" width="22.51" height="65.2"/>
<rect x="1144.88" y="140.85" transform="matrix(0.152 -0.9884 0.9884 0.152 800.0181 1301.7249)" class="st6" width="27.46" height="87.57"/>
<ellipse transform="matrix(0.2709 -0.9626 0.9626 0.2709 -64.7216 411.2798)" class="st6" cx="239.14" cy="248.37" rx="11.56" ry="33.61"/>
<ellipse transform="matrix(0.2709 -0.9626 0.9626 0.2709 -14.648 391.6339)" class="st7" cx="251.21" cy="205.49" rx="14.66" ry="41.32"/>
<ellipse transform="matrix(0.2709 -0.9626 0.9626 0.2709 -113.9056 429.1604)" class="st8" cx="226.35" cy="289.77" rx="15" ry="52.19"/>
<polygon class="st5" points="286.09,99.62 260.28,93.84 240.89,111.83 238.41,85.5 215.32,72.62 239.59,62.12 244.7,36.17 
	262.19,56.02 288.45,52.86 274.98,75.62 "/>
<polygon class="st9" points="291.9,171 277.46,149.25 251.35,148.81 267.58,128.35 259.93,103.39 284.4,112.5 305.78,97.51 
	304.67,123.6 325.54,139.3 300.38,146.31 "/>
</svg>
